<svg width="489" height="75" viewBox="0 0 489 75" fill="none" xmlns="http://www.w3.org/2000/svg">
    <g clip-path="url(#clip0_408_2)">
        <path d="M250.57 62.9H259.19V36.07H266.72V29.76H259.19V25.64C259.19 23.07 260.09 20.56 262.99 20.56C264.86 20.56 265.95 21.27 266.72 21.72L267.43 14.58C265.76 14.19 263.31 13.87 261.12 13.87C254.3 13.87 250.57 18.5 250.57 25.13V29.76H244.2V36.07H250.57V62.9ZM213.06 45.53C213.06 40.58 215.76 35.68 221.36 35.68C227.02 35.68 229.73 40.44 229.73 45.53C229.73 51.06 227.99 56.98 221.36 56.98C214.8 56.98 213.06 51 213.06 45.53ZM204.05 46.56C204.05 56.08 210.42 63.68 221.36 63.68C232.36 63.68 238.73 56.09 238.73 46.56C238.73 35.62 231.2 28.99 221.36 28.99C211.58 28.99 204.05 35.62 204.05 46.56ZM164.93 62.9H173.55V46.68C173.55 42.43 174.9 35.68 181.14 35.68C186.67 35.68 186.74 41.15 186.74 45.2V62.9H195.36V41.99C195.36 34.53 191.95 28.99 184.1 28.99C179.6 28.99 175.86 31.05 173.68 34.27H173.55V14.64H164.93V62.9Z" fill="#006F9A"/>
        <path d="M122.71 62.9H131.33V46.68C131.33 42.43 132.68 35.68 138.92 35.68C144.45 35.68 144.52 41.15 144.52 45.2V62.9H153.14V41.99C153.14 34.53 149.73 28.99 141.88 28.99C137.38 28.99 133.71 30.47 131.01 34.27H130.88V29.77H122.71V62.91V62.9ZM110.29 54.02C107.07 55.82 103.47 57.37 99.29 57.37C93.95 57.37 90.22 54.35 89.83 49H112.74C112.74 37.42 109.27 28.99 96.97 28.99C86.67 28.99 81.59 36.9 81.59 46.49C81.59 57.36 87.96 63.67 98.9 63.67C103.53 63.67 107.14 62.77 110.29 61.03V54.02ZM89.83 43.08C90.22 38.64 92.66 35.29 97.49 35.29C102.32 35.29 104.25 38.89 104.5 43.08H89.83ZM64.09 62.9H72.71V14.64H64.09V62.9ZM37.13 62.9H45.75V50.74C45.75 45.98 45.75 37.23 52.76 37.23C54.3 37.23 55.85 37.49 56.62 37.94V29.25C55.72 28.99 54.82 28.99 53.98 28.99C48.83 28.99 45.29 34.2 44.91 37.29H44.78V29.76H37.12V62.9H37.13ZM0 62.9H26.64V55.82H9.01V43.21H25.03V36.13H9.01V25.06H26.51V17.98H0V62.89L0 62.9Z" fill="#006F9A"/>
        <path d="M286.38 0H289.44V74.67H286.38V0Z" fill="#878787"/>
        <path d="M304.42 60.0399L322.09 31.9799H304.86V29.0699H325.63V31.9799L308.06 60.0399H326.21V62.9499H304.42V60.0399Z" fill="#878787"/>
        <path d="M350.05 62.17C347.91 63.04 345.15 63.53 342.87 63.53C334.67 63.53 331.61 58 331.61 50.57C331.61 43.14 335.78 37.61 342.05 37.61C349.04 37.61 351.9 43.24 351.9 49.89V51.44H334.96C334.96 56.68 337.78 60.9 343.11 60.9C345.34 60.9 348.6 59.98 350.05 59.06V62.17ZM348.55 48.82C348.55 44.5 346.8 40.23 342.24 40.23C337.68 40.23 334.96 44.74 334.96 48.82H348.55Z" fill="#878787"/>
        <path d="M359.65 44.02C359.65 42.13 359.65 40.19 359.46 38.2H362.42V42.62H362.52C363.54 40.39 365.38 37.62 370.53 37.62C376.65 37.62 378.98 41.7 378.98 47.13V62.95H375.92V47.9C375.92 43.24 374.27 40.23 370.05 40.23C364.47 40.23 362.72 45.13 362.72 49.26V62.95H359.66V44.02H359.65Z" fill="#878787"/>
        <path d="M399.26 40.8099H393.63V56.8299C393.63 59.0599 394.46 60.9099 396.93 60.9099C398.1 60.9099 398.87 60.6699 399.75 60.3299L399.94 62.8499C399.21 63.1399 397.71 63.5299 396.2 63.5299C390.76 63.5299 390.57 59.7899 390.57 55.2799V40.8199H385.72V38.1999H390.57V32.2299L393.63 31.1599V38.1999H399.26V40.8199V40.8099Z" fill="#878787"/>
        <path d="M408.62 43.73C408.62 41.01 408.62 39.99 408.43 38.2H411.49V42.96H411.59C412.71 40.19 414.79 37.62 417.95 37.62C418.68 37.62 419.55 37.77 420.08 37.91V41.11C419.45 40.92 418.62 40.82 417.85 40.82C413 40.82 411.69 46.26 411.69 50.72V62.95H408.63V43.73H408.62Z" fill="#878787"/>
        <path d="M446.04 57.1199C446.04 59.0099 446.04 60.9499 446.23 62.9399H443.27V58.5199H443.17C442.15 60.7499 440.31 63.5199 435.16 63.5199C429.04 63.5199 426.71 59.4399 426.71 54.0099V38.1899H429.77V53.2399C429.77 57.8999 431.42 60.9099 435.64 60.9099C441.22 60.9099 442.97 56.0099 442.97 51.8799V38.1899H446.03V57.1199H446.04Z" fill="#878787"/>
        <path d="M485.55 62.95V46.5C485.55 43 484.24 40.24 480.31 40.24C476.96 40.24 473.66 43.1 473.66 49.27V62.96H470.6V46.51C470.6 43.01 469.29 40.25 465.36 40.25C462.01 40.25 458.71 43.11 458.71 49.28V62.97H455.65V44.04C455.65 42.15 455.65 40.21 455.46 38.22H458.42V42.39L458.52 42.44C459.49 40.74 460.95 37.63 466.24 37.63C468.42 37.63 472.02 38.55 472.79 42.87H472.89C474.01 39.96 476.92 37.63 480.8 37.63C485.8 37.63 488.61 41.12 488.61 45.93V62.97H485.55V62.95Z" fill="#878787"/>
    </g>
    <defs>
        <clipPath id="clip0_408_2">
            <rect width="488.6" height="74.67" fill="white"/>
        </clipPath>
    </defs>
</svg>